<?xml version="1.0" encoding="UTF-8" standalone="no"?>
<svg width="108px" height="108px" viewBox="0 0 108 108" version="1.1" xmlns="http://www.w3.org/2000/svg" xmlns:xlink="http://www.w3.org/1999/xlink" xmlns:sketch="http://www.bohemiancoding.com/sketch/ns">
    <!-- Generator: Sketch 3.1.1 (8761) - http://www.bohemiancoding.com/sketch -->
    <title>life-button</title>
    <desc>Created with Sketch.</desc>
    <defs></defs>
    <g id="Page-2" stroke="none" stroke-width="1" fill="none" fill-rule="evenodd" sketch:type="MSPage">
        <g id="life-button" sketch:type="MSLayerGroup" transform="translate(4.000000, 4.000000)">
            <ellipse id="red-oval" fill="#FBA3B4" sketch:type="MSShapeGroup" cx="50.5" cy="50" rx="37.5777778" ry="38"></ellipse>
            <path d="M50,75.3975389 C49.836851,75.112271 49.6663688,74.8271134 49.488625,74.5426639 C46.0126939,68.9800113 41.0759809,65.7946349 38.462168,67.4279265 C35.848355,69.0612181 36.5472399,74.8946835 40.023171,80.4573361 C43.0764774,85.3436478 47.2569393,88.3956268 50,87.9585126 C52.7430607,88.3956268 56.9235226,85.3436478 59.976829,80.4573361 C63.4527601,74.8946835 64.151645,69.0612181 61.537832,67.4279265 C58.9240191,65.7946349 53.9873061,68.9800113 50.511375,74.5426639 C50.3336312,74.8271134 50.163149,75.112271 50,75.3975389 Z" id="heart" fill="#EF3559" sketch:type="MSShapeGroup"></path>
            <g id="duble-circle" stroke="#393F44" stroke-width="7" sketch:type="MSShapeGroup">
                <circle id="Oval-1" cx="50" cy="50" r="50"></circle>
                <circle id="Oval-2" cx="50" cy="50" r="40"></circle>
            </g>
        </g>
    </g>
</svg>