<?xml version="1.0" encoding="UTF-8" standalone="no"?>
<svg width="200px" height="300px" viewBox="0 0 200 300" version="1.1" xmlns="http://www.w3.org/2000/svg" xmlns:xlink="http://www.w3.org/1999/xlink" xmlns:sketch="http://www.bohemiancoding.com/sketch/ns">
    <!-- Generator: Sketch 3.1.1 (8761) - http://www.bohemiancoding.com/sketch -->
    <title>ma-R</title>
    <desc>Created with Sketch.</desc>
    <defs></defs>
    <g id="Page-1" stroke="none" stroke-width="1" fill="none" fill-rule="evenodd" sketch:type="MSPage">
        <g id="ma-R" sketch:type="MSLayerGroup">
            <circle id="head" fill="#9BA3AB" sketch:type="MSShapeGroup" cx="100" cy="100" r="100"></circle>
            <rect id="left-arm" fill="#9BA3AB" sketch:type="MSShapeGroup" x="110" y="200" width="20" height="60" rx="10">
                <animateTransform attributeName="transform" type="rotate" dur="1000ms" values="30,120,210; -30,120,210; 30,120,210" repeatCount="indefinite" />
            </rect>
            <path d="M130,260 C130,237.90861 122.5,200 100,200 C77.5,200 70,237.903753 70,260 L130,260 Z" id="torso" fill="#393F44" sketch:type="MSShapeGroup"></path>
            <rect id="right-arm" fill="#9BA3AB" sketch:type="MSShapeGroup" x="70" y="200" width="20" height="60" rx="10">
                <animateTransform attributeName="transform" type="rotate" dur="1000ms" values="-30,80,210; 30,80,210; -30,80,210" repeatCount="indefinite" />
            </rect>
            <path d="M100,300 C100,285.272407 100,260 85,260 C70,260 70,285.269168 70,300 L100,300 Z" id="right-leg" fill="#9BA3AB" sketch:type="MSShapeGroup" transform="translate(85.000000, 280.000000) scale(1, -1) translate(-85.000000, -280.000000) ">
                <animateTransform attributeName="transform" type="translate" additive="sum" dur="1000ms" values="0,0; 30,0; 0,0" repeatCount="indefinite" />
            </path>
            <path d="M130,300 C130,285.272407 130,260 115,260 C100,260 100,285.269168 100,300 L130,300 Z" id="left-leg" fill="#9BA3AB" sketch:type="MSShapeGroup" transform="translate(115.000000, 280.000000) scale(1, -1) translate(-115.000000, -280.000000) ">
                <animateTransform attributeName="transform" type="translate" additive="sum" dur="1000ms" values="0,0; -30,0; 0,0" repeatCount="indefinite" />
            </path>
            <path d="M200,100 C200,44.771525 155.228475,0 100,0 C44.771525,0 0,44.771525 0,100 L200,100 Z" id="cap-center" fill="#094F93" sketch:type="MSShapeGroup"></path>
            <path d="M150,100 C150,44.771525 127.614237,0 100,0 C72.3857625,0 50,44.771525 50,100 L150,100 Z" id="cap-side" fill="#9D001F" sketch:type="MSShapeGroup"></path>
            <path d="M135.550996,125.571972 C152.65041,130.191973 160,145.591973 160,145.591973 C160,145.591973 151.293887,136.612148 133.37334,130.191973 C115.452793,123.771798 83,120 83,120 C83,120 118.451582,120.951972 135.550996,125.571972 Z" id="eye" fill="#393F44" sketch:type="MSShapeGroup"></path>
            <path d="M72.3717126,169.00993 C89.4895418,151.063527 100,126.759188 100,100 L0,100 C45.7714844,112.197266 60,120 72.3717126,169.00993 Z" id="Oval-13" fill="#393F44" sketch:type="MSShapeGroup" transform="translate(50.000000, 134.504965) scale(-1, 1) translate(-50.000000, -134.504965) "></path>
        </g>
    </g>
</svg>
