<?xml version="1.0" encoding="UTF-8" standalone="no"?>
<svg width="108px" height="108px" viewBox="0 0 108 108" version="1.1" xmlns="http://www.w3.org/2000/svg" xmlns:xlink="http://www.w3.org/1999/xlink" xmlns:sketch="http://www.bohemiancoding.com/sketch/ns">
    <!-- Generator: Sketch 3.1.1 (8761) - http://www.bohemiancoding.com/sketch -->
    <title>back-button</title>
    <desc>Created with Sketch.</desc>
    <defs></defs>
    <g id="Page-2" stroke="none" stroke-width="1" fill="none" fill-rule="evenodd" sketch:type="MSPage">
        <g id="back-button" sketch:type="MSLayerGroup" transform="translate(4.000000, 4.000000)">
            <g id="double-circle" stroke="#393F44" stroke-width="7" sketch:type="MSShapeGroup">
                <circle id="outer-oval" cx="50" cy="50" r="50"></circle>
                <circle id="inner-oval" fill="#C1C6CB" cx="50" cy="50" r="40"></circle>
            </g>
            <path d="M36.9609375,70.7324219 L36.9609375,29.2675781 L49.9858398,29.2675781 C54.8556559,29.2675781 58.4632044,30.3417861 60.8085938,32.4902344 C63.1897906,34.6923938 64.3803711,37.539045 64.3803711,41.0302734 C64.3803711,46.2223567 61.8022719,49.033201 56.6459961,49.4628906 C59.5822087,49.8925803 61.7351006,50.8593675 63.1047363,52.3632812 C64.4743721,53.867195 65.1591797,56.0335145 65.1591797,58.8623047 C65.1591797,62.425148 64.0044061,65.2897027 61.6948242,67.4560547 C59.4031461,69.6403104 56.3864119,70.7324219 52.6445312,70.7324219 L36.9609375,70.7324219 Z M48.159668,61.7358398 C48.3745128,61.7537436 48.5624992,61.7671712 48.7236328,61.776123 C48.8847664,61.7850749 49.0190424,61.7895508 49.1264648,61.7895508 C50.5229562,61.7895508 51.637447,61.4225297 52.4699707,60.6884766 C53.3024944,59.9544234 53.71875,58.9697327 53.71875,57.734375 C53.71875,56.4990173 53.3024944,55.5322301 52.4699707,54.8339844 C51.637447,54.1357387 50.496101,53.7866211 49.0458984,53.7866211 L48.159668,53.7866211 L48.159668,61.7358398 Z M48.159668,45.3808594 L48.9116211,45.3808594 C50.2544012,45.3808594 51.3151817,45.0675487 52.0939941,44.440918 C52.8728066,43.8142872 53.262207,42.9370174 53.262207,41.809082 C53.262207,39.4099815 51.9463022,38.2104492 49.3144531,38.2104492 C49.189127,38.2104492 49.0324716,38.2149251 48.8444824,38.223877 C48.6564932,38.2328288 48.428224,38.2462564 48.159668,38.2641602 L48.159668,45.3808594 Z" id="B" fill="#393F44" sketch:type="MSShapeGroup"></path>
        </g>
    </g>
</svg>