<?xml version="1.0" encoding="UTF-8" standalone="no"?>
<svg width="175px" height="86px" viewBox="0 0 175 86" version="1.1" xmlns="http://www.w3.org/2000/svg" xmlns:xlink="http://www.w3.org/1999/xlink" xmlns:sketch="http://www.bohemiancoding.com/sketch/ns">
    <!-- Generator: Sketch 3.1.1 (8761) - http://www.bohemiancoding.com/sketch -->
    <title>Group</title>
    <desc>Created with Sketch.</desc>
    <defs></defs>
    <g id="Page-2" stroke="none" stroke-width="1" fill="none" fill-rule="evenodd" sketch:type="MSPage">
        <g id="Group" sketch:type="MSLayerGroup" fill="#000000">
            <path d="M162.871582,64.4824219 C162.871582,56.9807568 161.546726,53.2299805 158.896973,53.2299805 C157.572097,53.2299805 156.515792,54.2146711 155.728028,56.184082 C154.958167,58.010263 154.573243,60.6957831 154.573243,64.2407227 C154.573243,67.731951 154.935788,70.4398504 155.660889,72.364502 C156.38599,74.2891535 157.39306,75.2514648 158.682129,75.2514648 C160.007006,75.2514648 161.027503,74.3025811 161.743653,72.4047852 C162.49561,70.5069892 162.871582,67.8662279 162.871582,64.4824219 L162.871582,64.4824219 L162.871582,64.4824219 Z M174.5,64.4018555 C174.5,70.721874 173.058771,75.860169 170.17627,79.8168945 C167.311672,83.7557163 163.578799,85.7250977 158.977539,85.7250977 C154.895488,85.7250977 151.39536,84.2122547 148.477051,81.1865234 C144.806785,77.3551241 142.97168,71.6081112 142.97168,63.9453125 C142.97168,56.604781 144.887351,50.9920442 148.71875,47.1069336 C151.565444,44.2244322 154.940248,42.7832031 158.843262,42.7832031 C163.623559,42.7832031 167.428046,44.734681 170.256836,48.6376953 C173.085626,52.5407096 174.5,57.7953771 174.5,64.4018555 L174.5,64.4018555 L174.5,64.4018555 Z" id="KT3K-STUDIO-path" sketch:type="MSShapeGroup"></path>
            <path d="M126.006836,85 L127.019532,43.5351562 L138.218262,43.5351562 L139.491211,85 L126.006836,85 Z" id="KT3K-STUDIO-path" sketch:type="MSShapeGroup"></path>
            <path d="M93.584473,85 L93.584473,43.5351562 L103.252442,43.5351562 C108.784696,43.5351562 113.09048,45.021144 116.169922,47.9931641 C120.216166,51.8782746 122.239258,57.3119768 122.239258,64.2944336 C122.239258,71.169468 120.529477,76.4778459 117.109864,80.2197266 C114.191555,83.4065915 109.841012,85 104.058106,85 L93.584473,85 L93.584473,85 Z M104.783203,74.9829102 C108.79364,74.7859691 110.798828,71.3306 110.798828,64.6166992 C110.798828,61.3045082 110.28858,58.690602 109.268067,56.7749023 C108.247554,54.8412989 106.868987,53.8745117 105.132325,53.8745117 L104.783203,53.8745117 L104.783203,74.9829102 L104.783203,74.9829102 Z" id="KT3K-STUDIO-path" sketch:type="MSShapeGroup"></path>
            <path d="M82.0195312,43.5351562 L76.584961,43.5351562 L76.584961,70.3100586 C76.584961,72.1720471 76.379071,73.4700484 75.967285,74.2041016 C75.5555,74.9023472 74.812506,75.2514648 73.738282,75.2514648 C72.699865,75.2514648 71.961347,74.875492 71.522705,74.1235352 C71.084064,73.3715783 70.864746,72.0914804 70.864746,70.2832031 L70.864746,43.5351562 L59.666016,43.5351562 L59.666016,71.2768555 C59.666016,76.5942649 61.313135,80.4614137 64.607422,82.878418 C67.203464,84.7762139 70.417136,85.7250977 74.248535,85.7250977 C77.632341,85.7250977 80.505848,84.8657313 82.869141,83.1469727 C84.623707,81.8579037 85.87695,80.4166746 86.628907,78.8232422 C87.398767,77.3014247 87.783692,75.3141399 87.783692,72.8613281 L87.783692,51.0893544 L92,43.5 L82,43.5 L82.0195312,43.5351562 Z" id="KT3K-STUDIO-path" sketch:type="MSShapeGroup"></path>
            <path d="M50.347168,85 L39.148438,85 L39.148438,53.4716797 L32.97168,53.4716797 L32.97168,43.5351562 L56.765625,43.5351562 L56.765625,53.4716797 L50.347168,53.4716797 L50.347168,85 L50.347168,85 Z" id="KT3K-STUDIO-path" sketch:type="MSShapeGroup"></path>
            <path d="M6.29980469,69.53125 C9.68798924,72.7807617 14.432442,75.4663086 16.992676,75.4663086 C17.959478,75.4663086 18.74723,75.2111842 19.355957,74.7009277 C19.964684,74.1906713 20.269043,73.5506223 20.269043,72.7807617 C20.269043,71.6707301 19.606615,70.5875704 18.281739,69.53125 L16.455567,68.1079102 C15.238113,67.1948197 14.199712,66.2862187 13.340332,65.3820801 C12.480953,64.4779414 11.782718,63.5469612 11.245606,62.5891113 C10.708494,61.6312615 10.314617,60.6420949 10.063965,59.621582 C9.813313,58.6010691 9.687989,57.5268611 9.687989,56.3989258 C9.687989,54.4653224 10.135575,52.4422306 11.030762,50.3295898 C11.478355,49.3448844 11.997556,48.4452352 12.588379,47.6306152 C13.179202,46.8159953 13.859534,46.0953807 14.629395,45.46875 C16.742036,43.6783765 19.29328,42.7832031 22.283203,42.7832031 C24.95086,42.7832031 27.63638,43.4903901 30.339844,44.9047852 L30.339844,57.5805664 C29.426754,56.1661713 28.388352,55.0516805 27.22461,54.2370605 C26.060867,53.4224406 24.915045,53.0151367 23.78711,53.0151367 C22.92773,53.0151367 22.220543,53.2657853 21.665528,53.7670898 C21.092608,54.2504907 20.806153,54.8323534 20.806153,55.5126953 C20.806153,56.6227269 21.56705,57.7237901 23.088867,58.815918 L24.861328,60.1318359 C27.224622,61.8326908 28.916499,63.5782788 29.937012,65.3686523 C30.975429,67.1590259 31.494629,69.2537315 31.494629,71.652832 C31.494629,75.7348837 30.250338,79.1007354 27.761719,81.7504883 C25.2731,84.4002411 22.12209,85.7250977 18.308594,85.7250977 C15.676745,85.7250977 9.00244141,85.7250977 0.449218753,85.7250977 L6.29980469,69.53125 Z" id="KT3K-STUDIO-path" sketch:type="MSShapeGroup"></path>
            <path d="M80.1464843,42.2749023 L68.9477539,42.2749023 L68.9477539,10.746582 L62.770996,10.746582 L62.770996,0.81005855 L86.5649414,0.81005855 L86.5649414,10.746582 L80.1464843,10.746582 L80.1464843,42.2749023 L80.1464843,42.2749023 Z" id="KT3K-2" sketch:type="MSShapeGroup"></path>
            <path d="M89.008789,30.0825195 L99.9389648,30.0825195 C99.9389648,32.5711387 100.852042,33.8154296 102.678223,33.8154296 C103.591313,33.8154296 104.334307,33.4618362 104.907226,32.7546386 C105.480146,32.0474411 105.766601,31.1209367 105.766601,29.9750976 C105.766601,27.0567888 104.244807,25.5976562 101.201172,25.5976562 C100.986327,25.5976562 100.717775,25.6110838 100.395508,25.6379394 C100.07324,25.664795 99.7062195,25.6961261 99.2944335,25.7319335 L99.2944335,16.8964843 C99.598797,16.9143881 99.8628732,16.9278157 100.08667,16.9367675 C100.310467,16.9457194 100.493977,16.9501953 100.637207,16.9501953 C103.698746,16.9501953 105.229492,15.5447731 105.229492,12.7338867 C105.229492,10.4422085 104.432788,9.2963867 102.839355,9.2963867 C101.586094,9.2963867 100.869955,10.2184152 100.690918,12.0625 L100.637207,12.6264648 L89.8144531,12.6264648 C90.1188166,8.75925796 91.4705283,5.70671688 93.8696289,3.46874996 C96.2508257,1.19497557 99.3749806,0.058105425 103.242187,0.058105425 C106.930357,0.058105425 109.99185,1.22183077 112.426758,3.54931636 C114.915377,5.85889822 116.159668,8.71450118 116.159668,12.1162109 C116.159668,15.9297065 114.485694,18.8390199 111.137695,20.8442382 C114.843768,22.9747827 116.696777,26.1795033 116.696777,30.4584961 C116.696777,34.1645693 115.380872,37.1813034 112.749023,39.508789 C110.152982,41.8362746 106.778178,43 102.624512,43 C98.5603637,43 95.2840293,41.8631298 92.7954101,39.5893554 C90.2709834,37.315581 89.008789,34.3525573 89.008789,30.7001953 L89.008789,30.0825195 L89.008789,30.0825195 Z" id="KT3K-STUDIO-path" sketch:type="MSShapeGroup"></path>
            <path d="M49.7529296,42 L42.3139647,22.8789062 L42.6093749,42 L28.4990234,42 L31.4106444,0.53515625 L42.6093749,0.53515625 L42.3139647,18.3134766 L48.9204101,0.53515625 L60.7368163,0.53515625 L51.7939452,20.5424805 L63.017578,42 L49.7529296,42 Z" id="KT3K-STUDIO-path-4" sketch:type="MSShapeGroup"></path>
            <path d="M140.230957,42 L132.791992,22.8789062 L133.087402,42 L118.977051,42 L121.888672,0.53515625 L133.087402,0.53515625 L132.791992,18.3134766 L139.398437,0.53515625 L151.214844,0.53515625 L142.271972,20.5424805 L153.495605,42 L140.230957,42 Z" id="Path-2" sketch:type="MSShapeGroup"></path>
        </g>
    </g>
</svg>