<?xml version="1.0" encoding="UTF-8" standalone="no"?>
<svg width="200px" height="108px" viewBox="0 0 200 108" version="1.1" xmlns="http://www.w3.org/2000/svg" xmlns:xlink="http://www.w3.org/1999/xlink" xmlns:sketch="http://www.bohemiancoding.com/sketch/ns">
    <!-- Generator: Sketch 3.1.1 (8761) - http://www.bohemiancoding.com/sketch -->
    <title>logo-v2 2</title>
    <desc>Created with Sketch.</desc>
    <defs>
        <linearGradient x1="50%" y1="14.0804369%" x2="50%" y2="21.5604136%" id="linearGradient-1">
            <stop stop-color="#D8D8D8" offset="0%"></stop>
            <stop stop-color="#000000" offset="85.6226084%"></stop>
        </linearGradient>
        <linearGradient x1="50%" y1="15.1497188%" x2="50%" y2="20.4829575%" id="linearGradient-2">
            <stop stop-color="#979797" offset="0%"></stop>
            <stop stop-color="#000000" offset="100%"></stop>
        </linearGradient>
    </defs>
    <g id="v3" stroke="none" stroke-width="1" fill="none" fill-rule="evenodd" sketch:type="MSPage">
        <g id="v3+" sketch:type="MSLayerGroup" transform="translate(8.000000, 5.000000)">
            <g id="Group-2" sketch:type="MSShapeGroup">
                <circle id="Oval-2" stroke="#979797" stroke-width="4" fill="#FFFA21" cx="111.5" cy="10.5" r="10.5"></circle>
                <path d="M101.498422,31.9571533 C98.5558565,33.4762039 97.084596,35.2940569 97.084596,37.4107666 C97.084596,38.3819628 97.3776012,39.1850555 97.9636207,39.8200683 C98.5496399,40.4550812 99.3289094,40.772583 100.301452,40.772583 C101.174247,40.772583 102.757722,40.1936093 105.051926,39.0356446 C107.346129,37.8776797 109.415868,37.2987061 111.261206,37.2987061 C113.006795,37.2987061 114.359607,37.7905225 115.319681,38.7741698 C116.279755,39.7578174 116.759785,41.1336582 116.759785,42.9017334 C116.759785,44.9437358 116.360799,46.4191849 115.562816,47.3281251 C114.764832,48.2370651 113.019268,48.878294 110.326073,49.2518311 C110.176451,49.2767336 109.952022,49.3016356 109.652778,49.3265381 C107.508196,49.6253676 106.435922,50.770864 106.435922,52.7630615 C106.435922,54.2074046 106.70399,55.209714 107.240136,55.7700196 C107.776281,56.3303251 108.829853,56.6353757 110.400884,56.6851807 C113.393323,56.809693 115.419423,57.4073432 116.479246,58.4781494 C117.539068,59.5489556 118.068971,61.3419064 118.068971,63.8570557 C118.068971,66.1978876 117.439321,67.997064 116.180003,69.2546386 C114.920685,70.5122133 113.119014,71.1409912 110.774937,71.1409912 C108.829851,71.1409912 106.585556,70.5806941 104.041982,69.460083 C101.498409,68.339472 99.9149337,67.7791748 99.2915088,67.7791748 C97.9947851,67.7791748 96.9536813,68.1589318 96.1681661,68.9184571 C95.3826508,69.6779823 94.989899,70.6678406 94.989899,71.8880615 C94.989899,73.9549664 96.4237546,75.7105641 99.2915088,77.1549072 C102.159263,78.5992503 105.787541,79.3214111 110.176452,79.3214111 C115.612717,79.3214111 119.908049,77.9580214 123.062579,75.2312011 C126.217109,72.5043809 127.79435,68.8126453 127.79435,64.1558838 C127.79435,61.0679777 127.096124,58.5590917 125.699653,56.6291503 C124.303181,54.6992091 122.1711,53.2860152 119.303346,52.3895264 C121.821982,51.2440128 123.673526,49.8308189 124.858033,48.1499024 C126.042541,46.4689858 126.634785,44.4083375 126.634785,41.9678955 C126.634785,38.2574278 125.344315,35.2816274 122.763336,33.0404053 C121.415331,31.8698495 119.350342,31.6611418 118.514649,29.8068848 C117.678955,27.9526277 118,19 118,19 L105,19 C105,19 105.621443,27.0572978 105,28.909668 C104.593994,30.119873 102.573997,31.4019055 101.498422,31.9571533 Z" id="Path" stroke="url(#linearGradient-2)" stroke-width="4" fill="url(#linearGradient-1)"></path>
                <path d="M14.5705492,41.255127 L14.5705492,52.5732422 L26.1287879,41.0310059 C24.8320642,40.881591 23.9218776,40.5142852 23.3982008,39.9290771 C22.874524,39.3438691 22.6126894,38.4162661 22.6126894,37.1462402 C22.6126894,35.6769946 22.9680362,34.6186555 23.6787406,33.9711914 C24.3894449,33.3237273 25.5926367,33 27.2883523,33 L36.4526515,33 C38.148367,33 39.3515589,33.3237273 40.0622633,33.9711914 C40.7729676,34.6186555 41.1283144,35.6769946 41.1283144,37.1462402 C41.1283144,38.515876 40.7729676,39.5430874 40.0622633,40.2279052 C39.3515589,40.9127232 38.3104551,41.255127 36.9389205,41.255127 L36.0785985,41.255127 L25.1936553,52.050293 C27.2135517,53.5444411 29.0588617,55.505481 30.7296402,57.9334716 C32.4004187,60.3614624 34.3579434,64.090551 36.6022727,69.1208496 L37.0885417,69.1208496 L37.8366477,69.1208496 C39.3079303,69.1208496 40.4051415,69.4570279 41.1283144,70.1293945 C41.8514873,70.8017612 42.2130682,71.810296 42.2130682,73.1550293 C42.2130682,74.6242749 41.8452531,75.682614 41.1096118,76.3300781 C40.3739704,76.9775422 39.1583102,77.3012695 37.4625947,77.3012695 L32.8617424,77.3012695 C30.841846,77.3012695 29.2084974,75.9441053 27.9616477,73.2297363 C27.7372148,72.7316869 27.5626585,72.3332534 27.4379735,72.0344238 C25.7921319,68.5480783 24.2834665,65.858652 22.9119318,63.9660645 C21.5403972,62.0734769 19.9319853,60.3427812 18.0866477,58.7739258 L14.5705492,62.1357422 L14.5705492,69.1208496 L15.1690341,69.1208496 C16.5156317,69.1208496 17.5442672,69.4632534 18.2549715,70.1480714 C18.9656759,70.8328892 19.3210227,71.8351985 19.3210227,73.1550293 C19.3210227,74.6242749 18.9532077,75.682614 18.2175664,76.3300781 C17.4819249,76.9775422 16.2662648,77.3012695 14.5705492,77.3012695 L4.91998106,77.3012695 C3.1993285,77.3012695 1.97743423,76.9837678 1.25426136,76.348755 C0.531088501,75.713742 0.169507576,74.6491774 0.169507576,73.1550293 C0.169507576,71.8351985 0.518620226,70.8328892 1.21685606,70.1480714 C1.91509189,69.4632534 2.9374933,69.1208496 4.28409091,69.1208496 L4.91998106,69.1208496 L4.91998106,41.255127 L4.28409091,41.255127 C2.96243033,41.255127 1.95873134,40.9064976 1.27296394,40.2092285 C0.587196695,39.5119594 0.244318182,38.4909735 0.244318182,37.1462402 C0.244318182,35.6769946 0.59966497,34.6186555 1.3103694,33.9711914 C2.02107367,33.3237273 3.22426553,33 4.91998106,33 L14.5705492,33 C16.2413277,33 17.4507539,33.3237273 18.1988636,33.9711914 C18.9469734,34.6186555 19.3210227,35.6769946 19.3210227,37.1462402 C19.3210227,38.4909735 18.9656759,39.5119594 18.2549715,40.2092285 C17.5442672,40.9064976 16.5156317,41.255127 15.1690341,41.255127 L14.5705492,41.255127 L14.5705492,41.255127 Z" id="KT3K" stroke="#000000" fill="#000000"></path>
                <path d="M81.244476,41.442627 L73.4267677,41.442627 L73.4267677,69.3083496 L79.7108586,69.3083496 C81.3816371,69.3083496 82.5785948,69.6320769 83.3017677,70.279541 C84.0249405,70.9270051 84.3865215,71.9728932 84.3865215,73.4172363 C84.3865215,74.8864819 84.0249405,75.944821 83.3017677,76.5922852 C82.5785948,77.2397493 81.3816371,77.5634766 79.7108586,77.5634766 L57.4921086,77.5634766 C55.846267,77.5634766 54.6617777,77.2397493 53.9386048,76.5922852 C53.2154319,75.944821 52.853851,74.8864819 52.853851,73.4172363 C52.853851,71.9479907 53.2091978,70.8958771 53.9199022,70.2608643 C54.6306065,69.6258514 55.8213301,69.3083496 57.4921086,69.3083496 L63.7761995,69.3083496 L63.7761995,41.442627 L55.9584912,41.442627 L55.7340593,49.0253906 L55.7340593,49.9592285 C55.7340593,51.1545471 55.4036491,52.0883756 54.7428189,52.7607422 C54.0819885,53.4331088 53.1655678,53.7692871 51.993529,53.7692871 C50.5970574,53.7692871 49.5684218,53.4144323 48.9075916,52.704712 C48.2467612,51.9949915 47.916351,50.8681717 47.916351,49.3242188 L47.916351,49.0253906 L48.3278093,37.8566895 C48.4026203,35.6403697 48.708094,34.3081077 49.2442392,33.8598633 C49.7803846,33.4116189 50.8713617,33.1875 52.5172033,33.1875 L84.6857639,33.1875 C86.3316055,33.1875 87.4225826,33.4116189 87.958728,33.8598633 C88.4948732,34.3081077 88.8128152,35.6403697 88.9125631,37.8566895 L89.2866162,49.0253906 L89.2866162,49.3242188 C89.2866162,50.8930742 88.9749085,52.0261195 88.3514836,52.7233887 C87.7280587,53.4206578 86.7181257,53.7692871 85.321654,53.7692871 C83.9750564,53.7692871 83.0087624,53.4268833 82.4227431,52.7420654 C81.8367237,52.0572475 81.5187819,50.8183683 81.4689078,49.0253906 L81.244476,41.442627 L81.244476,41.442627 Z" id="Path" stroke="#000000" fill="#000000"></path>
                <path d="M147.898674,40.8076172 L147.898674,52.1257324 L159.456912,40.5834961 C158.160189,40.4340812 157.250003,40.0667754 156.726326,39.4815673 C156.202648,38.8963594 155.940815,37.9687564 155.940815,36.6987305 C155.940815,35.2294849 156.296162,34.1711458 157.006865,33.5236816 C157.71757,32.8762175 158.920762,32.5524902 160.616477,32.5524902 L169.780776,32.5524902 C171.476492,32.5524902 172.679685,32.8762175 173.390388,33.5236816 C174.101093,34.1711458 174.456439,35.2294849 174.456439,36.6987305 C174.456439,38.0683662 174.101093,39.0955776 173.390388,39.7803954 C172.679685,40.4652134 171.63858,40.8076172 170.267045,40.8076172 L169.406724,40.8076172 L158.52178,51.6027832 C160.541676,53.0969313 162.386987,55.0579712 164.057765,57.4859618 C165.728543,59.9139526 167.686068,63.6430412 169.930397,68.6733398 L170.416667,68.6733398 L171.164773,68.6733398 C172.636056,68.6733398 173.733267,69.0095181 174.456439,69.6818848 C175.179612,70.3542514 175.541194,71.3627863 175.541194,72.7075195 C175.541194,74.1767651 175.173378,75.2351042 174.437736,75.8825684 C173.702095,76.5300325 172.486435,76.8537598 170.79072,76.8537598 L166.189867,76.8537598 C164.169971,76.8537598 162.536623,75.4965956 161.289773,72.7822266 C161.065339,72.2841771 160.890783,71.8857436 160.766098,71.5869141 C159.120257,68.1005686 157.611592,65.4111422 156.240058,63.5185547 C154.868522,61.6259672 153.260111,59.8952715 151.414773,58.326416 L147.898674,61.6882324 L147.898674,68.6733398 L148.497159,68.6733398 C149.843756,68.6733398 150.872392,69.0157436 151.583097,69.7005616 C152.2938,70.3853794 152.649149,71.3876888 152.649149,72.7075195 C152.649149,74.1767651 152.281333,75.2351042 151.545691,75.8825684 C150.810049,76.5300325 149.594389,76.8537598 147.898674,76.8537598 L138.248106,76.8537598 C136.527454,76.8537598 135.305559,76.536258 134.582386,75.9012452 C133.859214,75.2662322 133.497633,74.2016676 133.497633,72.7075195 C133.497633,71.3876888 133.846745,70.3853794 134.544981,69.7005616 C135.243217,69.0157436 136.265618,68.6733398 137.612216,68.6733398 L138.248106,68.6733398 L138.248106,40.8076172 L137.612216,40.8076172 C136.290555,40.8076172 135.286856,40.4589879 134.601089,39.7617188 C133.915322,39.0644496 133.572443,38.0434637 133.572443,36.6987305 C133.572443,35.2294849 133.92779,34.1711458 134.638494,33.5236816 C135.349199,32.8762175 136.552391,32.5524902 138.248106,32.5524902 L147.898674,32.5524902 C149.569452,32.5524902 150.778879,32.8762175 151.526988,33.5236816 C152.275099,34.1711458 152.649149,35.2294849 152.649149,36.6987305 C152.649149,38.0434637 152.2938,39.0644496 151.583097,39.7617188 C150.872392,40.4589879 149.843756,40.8076172 148.497159,40.8076172 L147.898674,40.8076172 L147.898674,40.8076172 Z" id="Path" stroke="#000000" fill="#000000"></path>
            </g>
            <text id="STUDIO" sketch:type="MSTextLayer" font-family="Courier" font-size="20" font-weight="bold" fill="#000000">
                <tspan x="52" y="98">STUDIO</tspan>
            </text>
            <text id="TM" sketch:type="MSTextLayer" font-family="Courier" font-size="9" font-weight="bold" fill="#000000">
                <tspan x="176" y="38">TM</tspan>
            </text>
        </g>
    </g>
</svg>