<?xml version="1.0" encoding="UTF-8"?>
<svg width="216px" height="219px" viewBox="0 0 216 219" version="1.1" xmlns="http://www.w3.org/2000/svg" xmlns:xlink="http://www.w3.org/1999/xlink">
    <!-- Generator: Sketch 41.2 (35397) - http://www.bohemiancoding.com/sketch -->
    <title>tree</title>
    <desc>Created with Sketch.</desc>
    <defs></defs>
    <g id="Page-1" stroke="none" stroke-width="1" fill="none" fill-rule="evenodd">
        <g id="tree" transform="translate(-88.000000, -70.000000)">
            <g transform="translate(88.000000, 70.000000)">
                <path d="M110.556641,68 L123.556641,68 C123.556641,68 125.126482,97.1278297 120.455078,140.460434 C115.783674,183.793038 107.27832,219 107.27832,219 L91,219 C91,219 103.3218,171.009372 107.27832,140.460434 C111.234841,109.911496 110.556641,68 110.556641,68 Z" id="Rectangle" fill="#C68800"></path>
                <path d="M111.902344,32.3671875 C111.902344,32.3671875 94.4522592,10.5873848 82.0625,6.64453125 C69.6727408,2.7016777 44.9804688,11.0703125 44.9804688,11.0703125 L80.3867188,27.0117188 L52.6796875,27.0117188 L30.1289063,41.96875 L19.984375,61.265625 L52.6796875,47.296875 L82.0625,42.09375 C82.0625,42.09375 65.6015334,46.0501545 52.6796875,52.421875 C39.7578416,58.7935955 33.9767969,58.6357191 19.5351563,72.9257812 C5.09351558,87.2158434 0.3203125,104.1875 0.3203125,104.1875 L52.6796875,75.2890625 L93.1171875,68.1210937 L111.902344,75.140625 L124.605469,75.2890625 L136.347656,64.7929688 L178.527344,72.1328125 L215.472656,98.4609375 C215.472656,98.4609375 197.452999,61.0658461 186.921875,52.421875 C176.390751,43.7779039 147.308594,42.5117188 147.308594,42.5117188 L175.5,32.3671875 L215.472656,47.296875 C215.472656,47.296875 187.639414,20.0001996 175.5,16.2382812 C163.360586,12.4763629 142.148438,24.5742188 142.148438,24.5742188 L163.742188,0.65625 C163.742188,0.65625 145.254053,2.18609443 130.730469,11.0703125 C116.206884,19.9545306 111.902344,32.3671875 111.902344,32.3671875 Z" id="Path-2" fill="#3ABF02"></path>
            </g>
        </g>
    </g>
</svg>