<?xml version="1.0" encoding="UTF-8" standalone="no"?>
<svg width="512px" height="512px" viewBox="0 0 512 512" version="1.1" xmlns="http://www.w3.org/2000/svg" xmlns:xlink="http://www.w3.org/1999/xlink" xmlns:sketch="http://www.bohemiancoding.com/sketch/ns">
    <!-- Generator: Sketch 3.1.1 (8761) - http://www.bohemiancoding.com/sketch -->
    <title>Rectangle 1 + STRAW</title>
    <desc>Created with Sketch.</desc>
    <defs></defs>
    <g id="Page-1" stroke="none" stroke-width="1" fill="none" fill-rule="evenodd" sketch:type="MSPage">
        <g id="Rectangle-1-+-STRAW" sketch:type="MSLayerGroup">
            <rect id="Rectangle-1" fill="#F3DF49" sketch:type="MSShapeGroup" x="0" y="0" width="512" height="512"></rect>
            <path d="M99.7973633,470.569336 L99.7973633,439.546387 C105.042507,446.710485 110.713999,450.29248 116.812012,450.29248 C119.114758,450.29248 120.991041,449.684821 122.440918,448.469482 C123.890795,447.254144 124.615723,445.729664 124.615723,443.895996 C124.615723,441.252103 123.037939,438.672213 119.882324,436.15625 L115.532715,432.766113 C112.632961,430.591298 110.159678,428.427175 108.112793,426.273682 C106.065908,424.120188 104.402838,421.902762 103.123535,419.621338 C101.844232,417.339914 100.90609,414.983899 100.309082,412.553223 C99.7120738,410.122546 99.4135742,407.563978 99.4135742,404.877441 C99.4135742,400.27195 100.479644,395.453313 102.611816,390.421387 C103.677902,388.075997 104.914544,385.933197 106.321777,383.99292 C107.729011,382.052643 109.349437,380.33627 111.183105,378.84375 C116.215032,374.579406 122.291631,372.447266 129.413086,372.447266 C135.766959,372.447266 142.163379,374.131656 148.602539,377.500488 L148.602539,407.691895 C146.427724,404.323063 143.954441,401.668548 141.182617,399.728271 C138.410793,397.787995 135.681654,396.817871 132.995117,396.817871 C130.948232,396.817871 129.263841,397.41487 127.941895,398.608887 C126.577304,399.76026 125.89502,401.146151 125.89502,402.766602 C125.89502,405.410495 127.707339,408.033027 131.332031,410.634277 L135.553711,413.768555 C141.182645,417.819682 145.21239,421.977355 147.643066,426.241699 C150.116386,430.506043 151.353027,435.495251 151.353027,441.209473 C151.353027,450.932178 148.389353,458.949024 142.461914,465.260254 C136.534476,471.571483 129.029342,474.727051 119.946289,474.727051 C113.677703,474.727051 106.961462,473.34116 99.7973633,470.569336 L99.7973633,470.569336 Z M196.256348,473 L169.583008,473 L169.583008,397.905273 L154.871094,397.905273 L154.871094,374.238281 L211.543945,374.238281 L211.543945,397.905273 L196.256348,397.905273 L196.256348,473 Z M288.685547,473 L259.837402,473 L246.660645,437.819336 C246.532714,437.222328 246.308839,436.433436 245.989014,435.452637 C245.669188,434.471838 245.274742,433.29916 244.805664,431.93457 L244.997559,438.458984 L244.997559,473 L218.452148,473 L218.452148,374.238281 L245.765137,374.238281 C257.790587,374.238281 266.788219,376.604957 272.758301,381.338379 C280.348834,387.393748 284.144043,396.007594 284.144043,407.180176 C284.144043,419.12034 279.048228,427.371722 268.856445,431.93457 L288.685547,473 Z M245.125488,419.973145 L246.916504,419.973145 C249.986832,419.973145 252.5454,418.800467 254.592285,416.455078 C256.63917,414.109689 257.662598,411.124693 257.662598,407.5 C257.662598,400.122684 253.803424,396.434082 246.084961,396.434082 L245.125488,396.434082 L245.125488,419.973145 Z M368.641602,473 L341.072754,473 L339.089844,460.462891 L321.115723,460.462891 L318.940918,473 L291.37207,473 L315.103027,374.238281 L347.725098,374.238281 L368.641602,473 Z M335.955566,439.290527 L334.228516,427.776855 C334.185872,427.734212 334.100587,427.158534 333.972656,426.049805 C333.887369,425.111649 333.43962,421.401725 332.629395,414.919922 C332.544108,414.194983 332.437501,413.203538 332.30957,411.945557 C332.18164,410.687575 332.011069,409.099131 331.797852,407.180176 L330.966309,397.841309 C330.881022,398.736821 330.763754,399.738927 330.614502,400.847656 C330.46525,401.956386 330.305339,403.171706 330.134766,404.493652 C329.836262,407.137546 329.623048,408.971186 329.495117,409.994629 C329.367187,411.018072 329.281901,411.636392 329.239258,411.849609 L327.384277,423.811035 L324.697754,439.290527 L335.955566,439.290527 Z M461.070801,473 L435.356934,473 L429.216309,438.39502 C428.022292,431.699999 427.126793,425.900578 426.529785,420.996582 C426.231281,418.565906 425.975424,416.540373 425.762207,414.919922 C425.54899,413.299471 425.39974,412.06283 425.314453,411.209961 C425.101236,412.958342 424.781415,416.220516 424.35498,420.996582 C424.141763,423.427258 423.885906,425.985826 423.587402,428.672363 C423.288898,431.3589 422.926434,434.194647 422.5,437.179688 L417.446777,473 L391.477051,473 L369.473145,374.238281 L395.82666,374.238281 L400.17627,401.42334 C401.839364,412.254774 402.990719,420.762013 403.630371,426.945312 L404.525879,435.964355 L405.357422,428.224609 C406.252934,419.1842 407.40429,410.591675 408.811523,402.446777 L413.800781,374.238281 L436.76416,374.238281 L441.241699,397.969238 C443.373871,409.01389 445.228833,422.083909 446.806641,437.179688 C447.275718,430.39938 447.787432,424.386745 448.341797,419.141602 C448.896162,413.896458 449.514482,409.141786 450.196777,404.877441 L455.058105,374.238281 L481.091797,374.238281 L461.070801,473 Z" id="STRAW" fill="#2E2E2C" sketch:type="MSShapeGroup"></path>
        </g>
    </g>
</svg>