<?xml version="1.0" encoding="UTF-8" standalone="no"?>
<svg width="736px" height="580px" viewBox="0 0 736 580" version="1.1" xmlns="http://www.w3.org/2000/svg" xmlns:xlink="http://www.w3.org/1999/xlink" xmlns:sketch="http://www.bohemiancoding.com/sketch/ns">
    <!-- Generator: Sketch 3.1.1 (8761) - http://www.bohemiancoding.com/sketch -->
    <title>v2</title>
    <desc>Created with Sketch.</desc>
    <defs>
        <linearGradient x1="50%" y1="0%" x2="50%" y2="100%" id="linearGradient-1">
            <stop stop-color="#9BA3AB" offset="0%"></stop>
            <stop stop-color="#636E79" offset="100%"></stop>
        </linearGradient>
    </defs>
    <g id="v2" stroke="none" stroke-width="1" fill="none" fill-rule="nonzero" sketch:type="MSPage">
        <g sketch:type="MSLayerGroup" transform="translate(1.000000, 1.000000)">
            <g id="LONG-+-DREAM-3" sketch:type="MSShapeGroup">
                <path d="M-0.0186666667,343.374153 C-0.0186666667,454.707504 90.2327684,544.961017 201.563556,544.961017 C231.462113,544.961017 260.552528,538.40705 287.123708,525.938709 L261.139291,470.560979 L215.641224,511.447952 C253.592075,553.680715 307.686305,578.327119 365.609778,578.327119 C424.162584,578.327119 478.784653,553.140906 516.769416,510.110627 L470.911384,469.627815 L444.073947,524.597196 C471.383819,537.931178 501.472101,544.961017 532.436444,544.961017 C643.767232,544.961017 734.018667,454.707504 734.018667,343.374153 C734.018667,270.474505 694.94626,204.32335 632.95966,168.613166 L602.425204,221.618054 L663.200455,214.681712 C651.635808,113.349242 565.666326,36.1279661 462.925333,36.1279661 C461.386862,36.1279661 459.849842,36.145314 458.314494,36.1799742 L459.695007,97.3355803 L500.696525,51.9405129 C463.934649,18.7350959 416.152557,-0.0186440678 365.609778,-0.0186440678 C315.066999,-0.0186440678 267.284907,18.7350959 230.523031,51.9405129 L271.524549,97.3355803 L272.905062,36.1799742 C271.369713,36.145314 269.832694,36.1279661 268.294222,36.1279661 C164.612893,36.1279661 78.1384612,114.736041 67.7470418,217.206342 L128.604682,223.378144 L96.7755706,171.140465 C37.1802296,207.45437 -0.0186666667,272.241871 -0.0186666667,343.374153 Z" id="Oval-4" fill="#191B1D"></path>
                <path d="M224.425556,270.508475 L159.131111,270.508475 L159.131111,132.403072 L196.429445,132.403072 L196.429445,237.323822 L224.425556,237.323822 L224.425556,270.508475 L224.425556,270.508475 Z M336.499444,201.903006 C336.499444,222.952855 331.699307,240.066782 322.098889,253.245299 C312.5581,266.364186 300.125447,272.92353 284.800556,272.92353 C271.204932,272.92353 259.547456,267.884761 249.827778,257.807071 C237.603642,245.045972 231.491667,225.904612 231.491667,200.382415 C231.491667,175.933582 237.871973,157.239449 250.632778,144.299457 C260.113936,134.698818 271.354009,129.89857 284.353333,129.89857 C300.274524,129.89857 312.945694,136.398284 322.367222,149.397908 C331.788751,162.397531 336.499444,179.899056 336.499444,201.903006 L336.499444,201.903006 L336.499444,201.903006 Z M284.532222,164.69326 C280.119607,164.69326 276.601494,167.972932 273.977778,174.532376 C271.413691,180.614768 270.131667,189.559329 270.131667,201.366327 C270.131667,212.99443 271.339155,222.013529 273.754167,228.423894 C276.169179,234.834259 279.523312,238.039394 283.816667,238.039394 C288.229281,238.039394 291.628136,234.878982 294.013333,228.558064 C296.51779,222.237146 297.77,213.441661 297.77,202.171345 C297.77,177.18583 293.357452,164.69326 284.532222,164.69326 Z M352.420556,270.508475 L352.420556,132.403072 L388.019444,132.403072 L406.713333,180.883077 C407.727042,183.74538 408.874901,187.025052 410.156945,190.722193 C411.438987,194.419334 412.855178,198.682908 414.405557,203.513043 L418.251667,215.677767 C416.880179,203.691876 415.836672,193.435446 415.121113,184.90817 C414.405551,176.380894 414.047776,169.225245 414.047776,163.441009 L414.047776,132.403072 L449.646667,132.403072 L449.646667,270.508475 L414.047776,270.508475 L395.264444,219.70286 C393.296657,214.276412 391.522693,209.19292 389.9425,204.452231 C388.362307,199.711543 386.975932,195.19454 385.783333,190.901086 C386.558523,200.620988 387.124998,209.088506 387.482778,216.303893 C387.840557,223.51928 388.019444,229.840103 388.019444,235.266552 L388.019444,270.508475 L352.420556,270.508475 L352.420556,270.508475 Z M518.608333,190.632746 L570.665001,190.632746 L570.665001,196.357322 C570.665001,222.952883 566.699668,242.094243 558.768889,253.781978 C550.122551,266.543077 537.33212,272.92353 520.397221,272.92353 C503.760471,272.92353 490.701715,266.662338 481.220556,254.139764 C471.799027,241.497929 467.088333,224.14548 467.088333,202.081899 C467.088333,179.720161 471.828843,162.099376 481.309998,149.219015 C490.791157,136.338654 503.760475,129.89857 520.218334,129.89857 C542.042887,129.89857 557.874394,141.287978 567.713333,164.067135 L531.577778,177.305217 C531.041109,172.952132 529.803805,169.508476 527.865832,166.974146 C525.927859,164.439816 523.497976,163.172669 520.576112,163.172669 C510.319762,163.172669 505.191667,177.275261 505.191667,205.480866 C505.191667,217.466758 506.324617,226.172797 508.590555,231.599245 C510.856493,237.025694 514.464051,239.738877 519.413333,239.738877 C521.381123,239.738877 523.169992,239.261834 524.78,238.307733 C526.390008,237.353632 527.746567,236.011948 528.849723,234.282641 C529.952876,232.553333 530.817496,230.451361 531.44361,227.976662 C532.069727,225.501963 532.382779,222.744056 532.382779,219.70286 L518.608333,219.70286 L518.608333,190.632746 L518.608333,190.632746 Z" id="LONG" fill="url(#linearGradient-1)"></path>
                <path d="M83.8955556,447.152542 L83.8955556,309.04714 L116.095556,309.04714 C134.521203,309.04714 148.861986,313.996464 159.118333,323.89526 C172.594697,336.835252 179.332778,354.93308 179.332778,378.189288 C179.332778,401.087707 173.638205,418.768123 162.248889,431.231065 C152.529211,441.845436 138.039356,447.152542 118.778889,447.152542 L83.8955556,447.152542 L83.8955556,447.152542 Z M121.193889,413.788996 C134.550993,413.133052 141.229445,401.624383 141.229445,379.262646 C141.229445,368.230855 139.530017,359.524816 136.131111,353.144267 C132.732205,346.704086 128.14077,343.484044 122.356667,343.484044 L121.193889,343.484044 L121.193889,413.788996 L121.193889,413.788996 Z M293.463889,447.152542 L253.124444,447.152542 L234.698889,397.956965 C234.519999,397.122127 234.206947,396.018964 233.759722,394.647445 C233.312498,393.275924 232.760929,391.636088 232.105,389.727887 L232.373333,398.85143 L232.373333,447.152542 L195.253889,447.152542 L195.253889,309.04714 L233.446667,309.04714 C250.262306,309.04714 262.844032,312.356627 271.192222,318.975702 C281.806349,327.443347 287.113333,339.488689 287.113333,355.112089 C287.113333,371.808854 279.987664,383.347337 265.736111,389.727887 L293.463889,447.152542 L293.463889,447.152542 Z M232.552222,373.00139 L235.056667,373.00139 C239.350022,373.00139 242.927763,371.361554 245.79,368.081833 C248.652237,364.802111 250.083333,360.627983 250.083333,355.559322 C250.083333,345.243107 244.686906,340.085077 233.893889,340.085077 L232.552222,340.085077 L232.552222,373.00139 L232.552222,373.00139 Z M305.807222,447.152542 L305.807222,309.04714 L375.126667,309.04714 L375.126667,341.516221 L343.105556,341.516221 L343.105556,361.641684 L371.817222,361.641684 L371.817222,392.858514 L343.105556,392.858514 L343.105556,413.967889 L375.126667,413.967889 L375.126667,447.152542 L305.807222,447.152542 L305.807222,447.152542 Z M490.509998,447.152542 L451.959444,447.152542 L449.186667,429.621028 L424.052777,429.621028 L421.011667,447.152542 L382.461111,447.152542 L415.645001,309.04714 L461.261666,309.04714 L490.509998,447.152542 L490.509998,447.152542 Z M444.803888,400.014235 L442.388889,383.913864 C442.32926,383.854233 442.210002,383.049222 442.031111,381.498808 C441.91185,380.18692 441.285746,374.999074 440.152777,365.935117 C440.033519,364.921384 439.884444,363.534977 439.705554,361.775854 C439.526667,360.016731 439.28815,357.795498 438.989998,355.112089 L437.827223,342.0529 C437.707962,343.305157 437.543984,344.706472 437.335277,346.256886 C437.126574,347.807299 436.902964,349.506766 436.664444,351.355336 C436.247034,355.052477 435.948889,357.616585 435.770002,359.047736 C435.591111,360.478887 435.471853,361.343528 435.412221,361.641684 L432.818334,378.36818 L429.061666,400.014235 L444.803888,400.014235 L444.803888,400.014235 Z M643.46,447.152542 L604.462222,447.152542 L601.689445,384.182203 L600.526667,359.047736 C600.109257,363.877871 599.632224,368.48432 599.095556,372.867221 C598.558887,377.250121 597.902967,381.498788 597.127776,385.613347 L585.410555,447.152542 L554.999444,447.152542 L544.981666,385.523901 C544.385368,381.946023 543.580374,375.804091 542.566667,367.097921 C542.447405,365.786033 542.179076,363.102664 541.761666,359.047736 L540.867223,384.539989 L537.557778,447.152542 L497.844444,447.152542 L513.944444,309.04714 L560.36611,309.04714 L568.147779,355.559322 C568.803706,359.375725 569.38509,363.520039 569.891946,367.992386 C570.398798,372.464734 570.860924,377.324612 571.278334,382.572166 C572.053522,373.806365 573.126846,365.964967 574.498334,359.047736 L583.979444,309.04714 L630.043332,309.04714 L643.46,447.152542 L643.46,447.152542 Z" id="DREAM" fill="url(#linearGradient-1)"></path>
            </g>
            <path d="M367,551 L315,551 C315,551 327.315415,497.542461 334.427891,497.542461 C328.246797,494.062628 325.4,489.701131 325.4,483.5625 C325.4,474.967569 332.384358,468 341,468 C349.615642,468 356.6,474.967569 356.6,483.5625 C356.6,489.701131 354.274727,494.154828 347.862017,497.54246 C355.422891,497.542461 367,551 367,551 Z" id="nim-2" stroke="#083D71" stroke-width="4" stroke-linejoin="round" fill="#0B6AC6" sketch:type="MSShapeGroup"></path>
            <path d="M419,551 L367,551 C367,551 379.315415,497.542461 386.427891,497.542461 C380.246797,494.062628 377.4,489.701131 377.4,483.5625 C377.4,474.967569 384.384358,468 393,468 C401.615642,468 408.6,474.967569 408.6,483.5625 C408.6,489.701131 406.274727,494.154828 399.862017,497.54246 C407.422891,497.542461 419,551 419,551 Z" id="neef" stroke="#9D001F" stroke-width="4" stroke-linejoin="round" fill="#EF3559" sketch:type="MSShapeGroup"></path>
        </g>
    </g>
</svg>