<?xml version="1.0" encoding="UTF-8" standalone="no"?>
<svg width="100px" height="230px" viewBox="0 0 100 230" version="1.1" xmlns="http://www.w3.org/2000/svg" xmlns:xlink="http://www.w3.org/1999/xlink">
    <!-- Generator: Sketch 3.8.3 (29802) - http://www.bohemiancoding.com/sketch -->
    <title>Combined Shape</title>
    <desc>Created with Sketch.</desc>
    <defs></defs>
    <g id="Page-1" stroke="none" stroke-width="1" fill="none" fill-rule="evenodd">
        <g id="Artboard-1" transform="translate(-43.000000, -82.000000)" fill="#FFA900">
            <path d="M114.000002,216.610553 C131.123199,224.546124 143,241.886074 143,262 C143,289.614237 120.614237,312 93,312 C65.3857625,312 43,289.614237 43,262 C43,241.49681 55.3409515,223.876004 72.9999986,216.160437 L73,122 L73,95.3801653 L84.7318841,82 L102.268116,82 L114,95.3801653 L114,104 L130,104 L130,112 L114,112 L114,122 L114,123 L130,123 L130,131 L114,131 L114,142 L130,142 L130,150 L114,150 L114,161 L130,161 L130,169 L114,169 L114,180 L130,180 L130,188 L114,188 L114,216.610541 L114.000002,216.610553 Z" id="Combined-Shape"></path>
        </g>
    </g>
</svg>