<?xml version="1.0" encoding="UTF-8"?>
<svg width="352px" height="148px" viewBox="0 0 352 148" version="1.1" xmlns="http://www.w3.org/2000/svg" xmlns:xlink="http://www.w3.org/1999/xlink">
    <!-- Generator: Sketch 41.2 (35397) - http://www.bohemiancoding.com/sketch -->
    <title>car</title>
    <desc>Created with Sketch.</desc>
    <defs>
        <linearGradient x1="50%" y1="0%" x2="50%" y2="100%" id="linearGradient-1">
            <stop stop-color="#381154" offset="0%"></stop>
            <stop stop-color="#A838A7" offset="100%"></stop>
        </linearGradient>
    </defs>
    <g id="Page-1" stroke="none" stroke-width="1" fill="none" fill-rule="evenodd">
        <g id="Artboard" transform="translate(-84.000000, -140.000000)">
            <g id="car" transform="translate(84.000000, 140.000000)">
                <path d="M0,63.0054046 C0,57.4795722 2.87407515,49.5742453 6.59034821,45.4762745 C6.59034821,45.4762745 19.9817204,27.4681743 45.6289062,16.3203125 C71.2760921,5.17245072 92.911394,-1.49456037 118.464844,1.5078125 L118.464844,53 C184.105469,53 342.009453,53 342.009453,53 C347.52708,53 352,57.4737335 352,63.0054046 L352,121.994595 C352,127.520428 347.517398,132 342.008999,132 L9.99100135,132 C4.47312367,132 0,127.526266 0,121.994595 L0,63.0054046 Z" id="body" fill="#940808"></path>
                <g id="tire" transform="translate(230.000000, 76.000000)">
                    <circle id="Oval" fill="#1B1B1B" cx="36" cy="36" r="36"></circle>
                    <g id="wheel" transform="translate(6.000000, 6.000000)" fill="#D8D8D8">
                        <path d="M53.0807102,48.8380696 C56.7179597,44.3933297 59.1046889,38.8855482 59.7037485,32.8518743 L37.094515,32.8518743 L53.0807102,48.8380696 Z M48.8380696,53.0807102 C44.3933297,56.7179597 38.8855482,59.1046889 32.8518743,59.7037485 L32.8518743,37.094515 L48.8380696,53.0807102 Z M6.6230383,10.865679 C2.98578886,15.3104188 0.599059624,20.8182004 -1.04083409e-14,26.8518743 L22.6092336,26.8518743 L6.6230383,10.865679 Z M10.865679,6.6230383 C15.3104188,2.98578886 20.8182004,0.599059624 26.8518743,1.64590563e-14 L26.8518743,22.6092336 L10.865679,6.6230383 Z M59.7037485,26.8518743 C59.1046889,20.8182004 56.7179597,15.3104188 53.0807102,10.865679 L37.094515,26.8518743 L59.7037485,26.8518743 Z M1.80216952e-13,32.8518743 C0.599059624,38.8855482 2.98578886,44.3933297 6.6230383,48.8380696 L22.6092336,32.8518743 L-6.97220059e-14,32.8518743 Z M48.8380696,6.6230383 C44.3933297,2.98578886 38.8855482,0.599059624 32.8518743,7.24420524e-15 L32.8518743,22.6092336 L48.8380696,6.6230383 Z M10.865679,53.0807102 C15.3104188,56.7179597 20.8182004,59.1046889 26.8518743,59.7037485 L26.8518743,37.094515 L10.865679,53.0807102 Z" id="Combined-Shape"></path>
                    </g>
                </g>
                <g id="tire" transform="translate(43.000000, 76.000000)">
                    <circle id="Oval" fill="#1B1B1B" cx="36" cy="36" r="36"></circle>
                    <g id="wheel" transform="translate(6.000000, 6.000000)" fill="#D8D8D8">
                        <path d="M53.0807102,48.8380696 C56.7179597,44.3933297 59.1046889,38.8855482 59.7037485,32.8518743 L37.094515,32.8518743 L53.0807102,48.8380696 Z M48.8380696,53.0807102 C44.3933297,56.7179597 38.8855482,59.1046889 32.8518743,59.7037485 L32.8518743,37.094515 L48.8380696,53.0807102 Z M6.6230383,10.865679 C2.98578886,15.3104188 0.599059624,20.8182004 -1.04083409e-14,26.8518743 L22.6092336,26.8518743 L6.6230383,10.865679 Z M10.865679,6.6230383 C15.3104188,2.98578886 20.8182004,0.599059624 26.8518743,1.64590563e-14 L26.8518743,22.6092336 L10.865679,6.6230383 Z M59.7037485,26.8518743 C59.1046889,20.8182004 56.7179597,15.3104188 53.0807102,10.865679 L37.094515,26.8518743 L59.7037485,26.8518743 Z M1.80216952e-13,32.8518743 C0.599059624,38.8855482 2.98578886,44.3933297 6.6230383,48.8380696 L22.6092336,32.8518743 L-6.97220059e-14,32.8518743 Z M48.8380696,6.6230383 C44.3933297,2.98578886 38.8855482,0.599059624 32.8518743,7.24420524e-15 L32.8518743,22.6092336 L48.8380696,6.6230383 Z M10.865679,53.0807102 C15.3104188,56.7179597 20.8182004,59.1046889 26.8518743,59.7037485 L26.8518743,37.094515 L10.865679,53.0807102 Z" id="Combined-Shape"></path>
                    </g>
                </g>
            </g>
            <polygon id="Rectangle" fill="url(#linearGradient-1)" points="204 143.585938 289 191.607422 204 191.607422"></polygon>
        </g>
    </g>
</svg>