<?xml version="1.0" encoding="UTF-8"?>
<svg width="48px" height="82px" viewBox="0 0 48 82" version="1.1" xmlns="http://www.w3.org/2000/svg" xmlns:xlink="http://www.w3.org/1999/xlink">
    <!-- Generator: Sketch 42 (36781) - http://www.bohemiancoding.com/sketch -->
    <title>female</title>
    <desc>Created with Sketch.</desc>
    <defs></defs>
    <g id="Page-1" stroke="none" stroke-width="1" fill="none" fill-rule="evenodd">
        <g id="rough" transform="translate(-905.000000, -513.000000)">
            <g id="female" transform="translate(905.000000, 513.000000)">
                <path d="M24,46 C34.6484375,46 38,81.5703125 38,81.5703125 L10,81.5703125 C10,81.5703125 13.3515625,46 24,46 Z" id="Triangle" fill="#2D9ED1"></path>
                <path d="M24,48 C30.8486328,48 34,66 34,66 L14,66 C14,66 17.1513672,48 24,48 Z" id="Triangle-2" fill="#FFFFFF"></path>
                <path d="M15.5,62.6328125 C17.4329966,62.6328125 19,60.6180939 19,58.1328125 L19,49 C19,49 12,55.6475311 12,58.1328125 C12,60.6180939 13.5670034,62.6328125 15.5,62.6328125 Z" id="Oval-7" fill="#2D9ED1"></path>
                <path d="M32.5,62.6328125 C34.4329966,62.6328125 36,60.6180939 36,58.1328125 L36,49 C36,49 29,55.6475311 29,58.1328125 C29,60.6180939 30.5670034,62.6328125 32.5,62.6328125 Z" id="Oval-7" fill="#2D9ED1" transform="translate(32.500000, 55.816406) scale(-1, 1) translate(-32.500000, -55.816406) "></path>
                <g id="female-head">
                    <path d="M24,0 C45.3505859,0 48,46 48,46 L0,46 C0,46 2.64941406,0 24,0 Z" id="hair" fill="#28221B"></path>
                    <g id="face" transform="translate(4.000000, 5.000000)">
                        <circle id="Oval-85" fill="#9BA3AB" cx="20" cy="20" r="20"></circle>
                        <ellipse id="Oval-86" fill="#393F44" transform="translate(9.500000, 29.000000) rotate(-6.000000) translate(-9.500000, -29.000000) " cx="9.5" cy="29" rx="2.5" ry="4"></ellipse>
                        <ellipse id="Oval-86-Copy" fill="#393F44" transform="translate(31.000000, 29.000000) scale(-1, 1) rotate(-6.000000) translate(-31.000000, -29.000000) " cx="31" cy="29" rx="2.5" ry="4"></ellipse>
                    </g>
                    <path d="M26.985996,28.2719736 L48,28.2719736 C48,28.2719736 41.3837891,3.41060513e-13 24,3.41060513e-13 C6.61621094,3.42314434e-13 0,28.2719736 0,28.2719736 L22.014004,28.2719736 L24.5,12 L26.985996,28.2719736 Z" id="front-hair" fill="#28221B"></path>
                </g>
            </g>
        </g>
    </g>
</svg>