<?xml version="1.0" encoding="UTF-8" standalone="no"?>
<svg width="108px" height="108px" viewBox="0 0 108 108" version="1.1" xmlns="http://www.w3.org/2000/svg" xmlns:xlink="http://www.w3.org/1999/xlink" xmlns:sketch="http://www.bohemiancoding.com/sketch/ns">
    <!-- Generator: Sketch 3.1.1 (8761) - http://www.bohemiancoding.com/sketch -->
    <title>life-button</title>
    <desc>Created with Sketch.</desc>
    <defs></defs>
    <g id="Page-2" stroke="none" stroke-width="1" fill="none" fill-rule="evenodd" sketch:type="MSPage">
        <g id="life-button" sketch:type="MSLayerGroup" transform="translate(4.000000, 4.000000)">
            <ellipse id="red-oval" fill="#F35372" sketch:type="MSShapeGroup" cx="50.5" cy="50" rx="37.5777778" ry="38"></ellipse>
            <path d="M50,53.5412328 C49.5539035,52.761228 49.0877559,51.9815248 48.6017532,51.2037579 C39.0975539,35.9938596 25.5991553,27.2841207 18.452236,31.7500115 C11.3053168,36.2159023 13.2162698,52.1662808 22.720469,67.3761791 C31.0690903,80.736766 42.4996801,89.081758 50,87.8865616 C57.5003199,89.081758 68.9309097,80.736766 77.279531,67.3761791 C86.7837302,52.1662808 88.6946832,36.2159023 81.547764,31.7500115 C74.4008447,27.2841207 60.9024461,35.9938596 51.3982468,51.2037579 C50.9122441,51.9815248 50.4460965,52.761228 50,53.5412328 Z" id="heart" fill="#C20429" sketch:type="MSShapeGroup"></path>
            <g id="duble-circle" stroke="#393F44" stroke-width="7" sketch:type="MSShapeGroup">
                <circle id="Oval-1" cx="50" cy="50" r="50"></circle>
                <circle id="Oval-2" cx="50" cy="50" r="40"></circle>
            </g>
        </g>
    </g>
</svg>